%TF.GenerationSoftware,KiCad,Pcbnew,8.0.6*%
%TF.CreationDate,2024-12-16T19:53:59-05:00*%
%TF.ProjectId,nametag,6e616d65-7461-4672-9e6b-696361645f70,rev?*%
%TF.SameCoordinates,Original*%
%TF.FileFunction,Copper,L2,Bot*%
%TF.FilePolarity,Positive*%
%FSLAX46Y46*%
G04 Gerber Fmt 4.6, Leading zero omitted, Abs format (unit mm)*
G04 Created by KiCad (PCBNEW 8.0.6) date 2024-12-16 19:53:59*
%MOMM*%
%LPD*%
G01*
G04 APERTURE LIST*
%TA.AperFunction,ComponentPad*%
%ADD10C,2.000000*%
%TD*%
%TA.AperFunction,ComponentPad*%
%ADD11R,1.700000X1.700000*%
%TD*%
%TA.AperFunction,ComponentPad*%
%ADD12O,1.700000X1.700000*%
%TD*%
%TA.AperFunction,ComponentPad*%
%ADD13R,2.000000X2.000000*%
%TD*%
%TA.AperFunction,ViaPad*%
%ADD14C,0.600000*%
%TD*%
G04 APERTURE END LIST*
D10*
%TO.P,SW1,1,A*%
%TO.N,/Mcu/switch*%
X48188000Y-83162000D03*
X48188000Y-89662000D03*
%TO.P,SW1,2,B*%
%TO.N,GND*%
X43688000Y-83162000D03*
X43688000Y-89662000D03*
%TD*%
D11*
%TO.P,J1,1,Pin_1*%
%TO.N,/Mcu/UPDI_RSTN*%
X116967000Y-90043000D03*
D12*
%TO.P,J1,2,Pin_2*%
%TO.N,+3.3V*%
X116967000Y-87503000D03*
%TO.P,J1,3,Pin_3*%
%TO.N,GND*%
X116967000Y-84963000D03*
%TO.P,J1,4,Pin_4*%
%TO.N,/Mcu/UPDI_PROG*%
X116967000Y-82423000D03*
%TD*%
D13*
%TO.P,BT1,1,+*%
%TO.N,Net-(BT1-+)*%
X56700000Y-85000000D03*
D10*
%TO.P,BT1,2,-*%
%TO.N,GND*%
X101400000Y-85000000D03*
%TD*%
D14*
%TO.N,GND*%
X115062000Y-55626000D03*
X116205000Y-50165000D03*
X61000000Y-80000000D03*
X61000000Y-92000000D03*
X61000000Y-86000000D03*
X61000000Y-88000000D03*
X51000000Y-83000000D03*
X86995000Y-81915000D03*
X95769260Y-87514260D03*
X63000000Y-80000000D03*
X75565000Y-93345000D03*
X80010000Y-55245000D03*
X107315000Y-84455000D03*
X52000000Y-92000000D03*
X80010000Y-48895000D03*
X82651600Y-66954400D03*
X54203600Y-89509600D03*
X83185000Y-60960000D03*
X50000000Y-86000000D03*
X54610000Y-93000000D03*
X57000000Y-81000000D03*
X104241600Y-55321200D03*
X53000000Y-81000000D03*
X61000000Y-84000000D03*
X50000000Y-90000000D03*
X113665000Y-61595000D03*
X113131600Y-66903600D03*
%TD*%
%TA.AperFunction,Conductor*%
%TO.N,GND*%
G36*
X116003032Y-40500648D02*
G01*
X116336929Y-40517052D01*
X116349037Y-40518245D01*
X116452146Y-40533539D01*
X116676699Y-40566849D01*
X116688617Y-40569219D01*
X117009951Y-40649709D01*
X117021588Y-40653240D01*
X117092806Y-40678722D01*
X117333467Y-40764832D01*
X117344688Y-40769479D01*
X117644163Y-40911120D01*
X117654871Y-40916844D01*
X117938988Y-41087137D01*
X117949106Y-41093897D01*
X118215170Y-41291224D01*
X118224576Y-41298944D01*
X118470013Y-41521395D01*
X118478604Y-41529986D01*
X118550610Y-41609432D01*
X118701055Y-41775423D01*
X118708775Y-41784829D01*
X118906102Y-42050893D01*
X118912862Y-42061011D01*
X119041776Y-42276092D01*
X119083148Y-42345116D01*
X119088883Y-42355844D01*
X119227361Y-42648632D01*
X119230514Y-42655297D01*
X119235170Y-42666540D01*
X119346759Y-42978411D01*
X119350292Y-42990055D01*
X119430777Y-43311369D01*
X119433151Y-43323305D01*
X119481754Y-43650962D01*
X119482947Y-43663071D01*
X119499351Y-43996966D01*
X119499500Y-44003051D01*
X119499500Y-90996948D01*
X119499351Y-91003033D01*
X119482947Y-91336928D01*
X119481754Y-91349037D01*
X119433151Y-91676694D01*
X119430777Y-91688630D01*
X119350292Y-92009944D01*
X119346759Y-92021588D01*
X119235170Y-92333459D01*
X119230514Y-92344702D01*
X119088885Y-92644151D01*
X119083148Y-92654883D01*
X118912862Y-92938988D01*
X118906102Y-92949106D01*
X118708775Y-93215170D01*
X118701055Y-93224576D01*
X118478611Y-93470006D01*
X118470006Y-93478611D01*
X118224576Y-93701055D01*
X118215170Y-93708775D01*
X117949106Y-93906102D01*
X117938988Y-93912862D01*
X117654883Y-94083148D01*
X117644151Y-94088885D01*
X117344702Y-94230514D01*
X117333459Y-94235170D01*
X117021588Y-94346759D01*
X117009944Y-94350292D01*
X116688630Y-94430777D01*
X116676694Y-94433151D01*
X116349037Y-94481754D01*
X116336928Y-94482947D01*
X116021989Y-94498419D01*
X116003031Y-94499351D01*
X115996949Y-94499500D01*
X44003051Y-94499500D01*
X43996968Y-94499351D01*
X43976900Y-94498365D01*
X43663071Y-94482947D01*
X43650962Y-94481754D01*
X43323305Y-94433151D01*
X43311369Y-94430777D01*
X42990055Y-94350292D01*
X42978411Y-94346759D01*
X42666540Y-94235170D01*
X42655301Y-94230515D01*
X42355844Y-94088883D01*
X42345121Y-94083150D01*
X42061011Y-93912862D01*
X42050893Y-93906102D01*
X41784829Y-93708775D01*
X41775423Y-93701055D01*
X41736475Y-93665755D01*
X41529986Y-93478604D01*
X41521395Y-93470013D01*
X41298944Y-93224576D01*
X41291224Y-93215170D01*
X41093897Y-92949106D01*
X41087137Y-92938988D01*
X40916844Y-92654871D01*
X40911120Y-92644163D01*
X40769479Y-92344688D01*
X40764829Y-92333459D01*
X40653240Y-92021588D01*
X40649707Y-92009944D01*
X40640958Y-91975015D01*
X40569219Y-91688617D01*
X40566848Y-91676694D01*
X40518245Y-91349037D01*
X40517052Y-91336927D01*
X40517045Y-91336793D01*
X40500649Y-91003032D01*
X40500500Y-90996948D01*
X40500500Y-89661994D01*
X42182859Y-89661994D01*
X42182859Y-89662005D01*
X42203385Y-89909729D01*
X42203387Y-89909738D01*
X42264412Y-90150717D01*
X42364266Y-90378364D01*
X42464564Y-90531882D01*
X43164212Y-89832234D01*
X43175482Y-89874292D01*
X43247890Y-89999708D01*
X43350292Y-90102110D01*
X43475708Y-90174518D01*
X43517765Y-90185787D01*
X42817942Y-90885609D01*
X42864768Y-90922055D01*
X42864770Y-90922056D01*
X43083385Y-91040364D01*
X43083396Y-91040369D01*
X43318506Y-91121083D01*
X43563707Y-91162000D01*
X43812293Y-91162000D01*
X44057493Y-91121083D01*
X44292603Y-91040369D01*
X44292614Y-91040364D01*
X44511228Y-90922057D01*
X44511231Y-90922055D01*
X44558056Y-90885609D01*
X43858234Y-90185787D01*
X43900292Y-90174518D01*
X44025708Y-90102110D01*
X44128110Y-89999708D01*
X44200518Y-89874292D01*
X44211787Y-89832235D01*
X44911434Y-90531882D01*
X45011731Y-90378369D01*
X45111587Y-90150717D01*
X45172612Y-89909738D01*
X45172614Y-89909729D01*
X45193141Y-89662005D01*
X45193141Y-89661994D01*
X46682357Y-89661994D01*
X46682357Y-89662005D01*
X46702890Y-89909812D01*
X46702892Y-89909824D01*
X46763936Y-90150881D01*
X46863826Y-90378606D01*
X46999833Y-90586782D01*
X46999836Y-90586785D01*
X47168256Y-90769738D01*
X47364491Y-90922474D01*
X47364493Y-90922475D01*
X47582332Y-91040364D01*
X47583190Y-91040828D01*
X47802141Y-91115994D01*
X47816964Y-91121083D01*
X47818386Y-91121571D01*
X48063665Y-91162500D01*
X48312335Y-91162500D01*
X48557614Y-91121571D01*
X48792810Y-91040828D01*
X49011509Y-90922474D01*
X49207744Y-90769738D01*
X49376164Y-90586785D01*
X49512173Y-90378607D01*
X49612063Y-90150881D01*
X49673108Y-89909821D01*
X49693643Y-89662000D01*
X49673108Y-89414179D01*
X49673107Y-89414175D01*
X49612063Y-89173118D01*
X49512173Y-88945393D01*
X49376166Y-88737217D01*
X49303534Y-88658318D01*
X49207744Y-88554262D01*
X49011509Y-88401526D01*
X49011507Y-88401525D01*
X49011506Y-88401524D01*
X48792811Y-88283172D01*
X48792802Y-88283169D01*
X48557616Y-88202429D01*
X48312335Y-88161500D01*
X48063665Y-88161500D01*
X47818383Y-88202429D01*
X47583197Y-88283169D01*
X47583188Y-88283172D01*
X47364493Y-88401524D01*
X47168257Y-88554261D01*
X46999833Y-88737217D01*
X46863826Y-88945393D01*
X46763936Y-89173118D01*
X46702892Y-89414175D01*
X46702890Y-89414187D01*
X46682357Y-89661994D01*
X45193141Y-89661994D01*
X45172614Y-89414270D01*
X45172612Y-89414261D01*
X45111587Y-89173282D01*
X45011731Y-88945630D01*
X44911434Y-88792116D01*
X44211787Y-89491764D01*
X44200518Y-89449708D01*
X44128110Y-89324292D01*
X44025708Y-89221890D01*
X43900292Y-89149482D01*
X43858235Y-89138212D01*
X44558057Y-88438390D01*
X44558056Y-88438389D01*
X44511229Y-88401943D01*
X44292614Y-88283635D01*
X44292603Y-88283630D01*
X44057493Y-88202916D01*
X43812293Y-88162000D01*
X43563707Y-88162000D01*
X43318506Y-88202916D01*
X43083396Y-88283630D01*
X43083390Y-88283632D01*
X42864761Y-88401949D01*
X42817942Y-88438388D01*
X42817942Y-88438390D01*
X43517765Y-89138212D01*
X43475708Y-89149482D01*
X43350292Y-89221890D01*
X43247890Y-89324292D01*
X43175482Y-89449708D01*
X43164212Y-89491764D01*
X42464564Y-88792116D01*
X42364267Y-88945632D01*
X42264412Y-89173282D01*
X42203387Y-89414261D01*
X42203385Y-89414270D01*
X42182859Y-89661994D01*
X40500500Y-89661994D01*
X40500500Y-83161994D01*
X42182859Y-83161994D01*
X42182859Y-83162005D01*
X42203385Y-83409729D01*
X42203387Y-83409738D01*
X42264412Y-83650717D01*
X42364266Y-83878364D01*
X42464564Y-84031882D01*
X43164212Y-83332234D01*
X43175482Y-83374292D01*
X43247890Y-83499708D01*
X43350292Y-83602110D01*
X43475708Y-83674518D01*
X43517765Y-83685787D01*
X42817942Y-84385609D01*
X42864768Y-84422055D01*
X42864770Y-84422056D01*
X43083385Y-84540364D01*
X43083396Y-84540369D01*
X43318506Y-84621083D01*
X43563707Y-84662000D01*
X43812293Y-84662000D01*
X44057493Y-84621083D01*
X44292603Y-84540369D01*
X44292614Y-84540364D01*
X44511228Y-84422057D01*
X44511231Y-84422055D01*
X44558056Y-84385609D01*
X43858234Y-83685787D01*
X43900292Y-83674518D01*
X44025708Y-83602110D01*
X44128110Y-83499708D01*
X44200518Y-83374292D01*
X44211787Y-83332235D01*
X44911434Y-84031882D01*
X45011731Y-83878369D01*
X45111587Y-83650717D01*
X45172612Y-83409738D01*
X45172614Y-83409729D01*
X45193141Y-83162005D01*
X45193141Y-83161994D01*
X46682357Y-83161994D01*
X46682357Y-83162005D01*
X46702890Y-83409812D01*
X46702892Y-83409824D01*
X46763936Y-83650881D01*
X46863826Y-83878606D01*
X46999833Y-84086782D01*
X47032245Y-84121991D01*
X47168256Y-84269738D01*
X47364491Y-84422474D01*
X47473840Y-84481651D01*
X47582332Y-84540364D01*
X47583190Y-84540828D01*
X47731952Y-84591898D01*
X47816964Y-84621083D01*
X47818386Y-84621571D01*
X48063665Y-84662500D01*
X48312335Y-84662500D01*
X48557614Y-84621571D01*
X48792810Y-84540828D01*
X49011509Y-84422474D01*
X49207744Y-84269738D01*
X49376164Y-84086785D01*
X49464135Y-83952135D01*
X55199500Y-83952135D01*
X55199500Y-86047870D01*
X55199501Y-86047876D01*
X55205908Y-86107483D01*
X55256202Y-86242328D01*
X55256206Y-86242335D01*
X55342452Y-86357544D01*
X55342455Y-86357547D01*
X55457664Y-86443793D01*
X55457671Y-86443797D01*
X55592517Y-86494091D01*
X55592516Y-86494091D01*
X55599444Y-86494835D01*
X55652127Y-86500500D01*
X57747872Y-86500499D01*
X57807483Y-86494091D01*
X57942331Y-86443796D01*
X58057546Y-86357546D01*
X58143796Y-86242331D01*
X58194091Y-86107483D01*
X58200500Y-86047873D01*
X58200499Y-84999994D01*
X99894859Y-84999994D01*
X99894859Y-85000005D01*
X99915385Y-85247729D01*
X99915387Y-85247738D01*
X99976412Y-85488717D01*
X100076266Y-85716364D01*
X100176564Y-85869882D01*
X100908871Y-85137575D01*
X100924755Y-85196853D01*
X100991898Y-85313147D01*
X101086853Y-85408102D01*
X101203147Y-85475245D01*
X101262424Y-85491128D01*
X100529942Y-86223609D01*
X100576768Y-86260055D01*
X100576770Y-86260056D01*
X100795385Y-86378364D01*
X100795396Y-86378369D01*
X101030506Y-86459083D01*
X101275707Y-86500000D01*
X101524293Y-86500000D01*
X101769493Y-86459083D01*
X102004603Y-86378369D01*
X102004614Y-86378364D01*
X102223228Y-86260057D01*
X102223231Y-86260055D01*
X102270056Y-86223609D01*
X101537575Y-85491128D01*
X101596853Y-85475245D01*
X101713147Y-85408102D01*
X101808102Y-85313147D01*
X101875245Y-85196853D01*
X101891127Y-85137575D01*
X102623434Y-85869882D01*
X102723731Y-85716369D01*
X102823587Y-85488717D01*
X102884612Y-85247738D01*
X102884614Y-85247729D01*
X102905141Y-85000005D01*
X102905141Y-84999994D01*
X102884614Y-84752270D01*
X102884612Y-84752261D01*
X102823587Y-84511282D01*
X102723731Y-84283630D01*
X102623434Y-84130116D01*
X101891127Y-84862423D01*
X101875245Y-84803147D01*
X101808102Y-84686853D01*
X101713147Y-84591898D01*
X101596853Y-84524755D01*
X101537575Y-84508872D01*
X102270057Y-83776390D01*
X102270056Y-83776389D01*
X102223229Y-83739943D01*
X102004614Y-83621635D01*
X102004603Y-83621630D01*
X101769493Y-83540916D01*
X101524293Y-83500000D01*
X101275707Y-83500000D01*
X101030506Y-83540916D01*
X100795396Y-83621630D01*
X100795390Y-83621632D01*
X100576761Y-83739949D01*
X100529942Y-83776388D01*
X100529942Y-83776390D01*
X101262424Y-84508871D01*
X101203147Y-84524755D01*
X101086853Y-84591898D01*
X100991898Y-84686853D01*
X100924755Y-84803147D01*
X100908872Y-84862424D01*
X100176564Y-84130116D01*
X100076267Y-84283632D01*
X99976412Y-84511282D01*
X99915387Y-84752261D01*
X99915385Y-84752270D01*
X99894859Y-84999994D01*
X58200499Y-84999994D01*
X58200499Y-83952128D01*
X58194091Y-83892517D01*
X58188814Y-83878369D01*
X58143797Y-83757671D01*
X58143793Y-83757664D01*
X58057547Y-83642455D01*
X58057544Y-83642452D01*
X57942335Y-83556206D01*
X57942328Y-83556202D01*
X57807482Y-83505908D01*
X57807483Y-83505908D01*
X57747883Y-83499501D01*
X57747881Y-83499500D01*
X57747873Y-83499500D01*
X57747864Y-83499500D01*
X55652129Y-83499500D01*
X55652123Y-83499501D01*
X55592516Y-83505908D01*
X55457671Y-83556202D01*
X55457664Y-83556206D01*
X55342455Y-83642452D01*
X55342452Y-83642455D01*
X55256206Y-83757664D01*
X55256202Y-83757671D01*
X55205908Y-83892517D01*
X55202428Y-83924890D01*
X55199501Y-83952123D01*
X55199500Y-83952135D01*
X49464135Y-83952135D01*
X49512173Y-83878607D01*
X49612063Y-83650881D01*
X49673108Y-83409821D01*
X49682672Y-83294401D01*
X49693643Y-83162005D01*
X49693643Y-83161994D01*
X49673109Y-82914187D01*
X49673107Y-82914175D01*
X49612063Y-82673118D01*
X49512173Y-82445393D01*
X49497542Y-82422999D01*
X115611341Y-82422999D01*
X115611341Y-82423000D01*
X115631936Y-82658403D01*
X115631938Y-82658413D01*
X115693094Y-82886655D01*
X115693096Y-82886659D01*
X115693097Y-82886663D01*
X115787724Y-83089591D01*
X115792965Y-83100830D01*
X115792967Y-83100834D01*
X115835797Y-83162001D01*
X115928505Y-83294401D01*
X116095599Y-83461495D01*
X116230854Y-83556202D01*
X116281594Y-83591730D01*
X116325219Y-83646307D01*
X116332413Y-83715805D01*
X116300890Y-83778160D01*
X116281595Y-83794880D01*
X116095922Y-83924890D01*
X116095920Y-83924891D01*
X115928891Y-84091920D01*
X115928886Y-84091926D01*
X115793400Y-84285420D01*
X115793399Y-84285422D01*
X115693570Y-84499507D01*
X115693567Y-84499513D01*
X115636364Y-84712999D01*
X115636364Y-84713000D01*
X116533988Y-84713000D01*
X116501075Y-84770007D01*
X116467000Y-84897174D01*
X116467000Y-85028826D01*
X116501075Y-85155993D01*
X116533988Y-85213000D01*
X115636364Y-85213000D01*
X115693567Y-85426486D01*
X115693570Y-85426492D01*
X115793399Y-85640578D01*
X115928894Y-85834082D01*
X116095917Y-86001105D01*
X116281595Y-86131119D01*
X116325219Y-86185696D01*
X116332412Y-86255195D01*
X116300890Y-86317549D01*
X116281595Y-86334269D01*
X116095594Y-86464508D01*
X115928505Y-86631597D01*
X115792965Y-86825169D01*
X115792964Y-86825171D01*
X115693098Y-87039335D01*
X115693094Y-87039344D01*
X115631938Y-87267586D01*
X115631936Y-87267596D01*
X115611341Y-87502999D01*
X115611341Y-87503000D01*
X115631936Y-87738403D01*
X115631938Y-87738413D01*
X115693094Y-87966655D01*
X115693096Y-87966659D01*
X115693097Y-87966663D01*
X115783951Y-88161500D01*
X115792965Y-88180830D01*
X115792967Y-88180834D01*
X115864946Y-88283630D01*
X115928501Y-88374396D01*
X115928506Y-88374402D01*
X116050430Y-88496326D01*
X116083915Y-88557649D01*
X116078931Y-88627341D01*
X116037059Y-88683274D01*
X116006083Y-88700189D01*
X115874669Y-88749203D01*
X115874664Y-88749206D01*
X115759455Y-88835452D01*
X115759452Y-88835455D01*
X115673206Y-88950664D01*
X115673202Y-88950671D01*
X115622908Y-89085517D01*
X115616501Y-89145116D01*
X115616501Y-89145123D01*
X115616500Y-89145135D01*
X115616500Y-90940870D01*
X115616501Y-90940876D01*
X115622908Y-91000483D01*
X115673202Y-91135328D01*
X115673206Y-91135335D01*
X115759452Y-91250544D01*
X115759455Y-91250547D01*
X115874664Y-91336793D01*
X115874671Y-91336797D01*
X116009517Y-91387091D01*
X116009516Y-91387091D01*
X116016444Y-91387835D01*
X116069127Y-91393500D01*
X117864872Y-91393499D01*
X117924483Y-91387091D01*
X118059331Y-91336796D01*
X118174546Y-91250546D01*
X118260796Y-91135331D01*
X118311091Y-91000483D01*
X118317500Y-90940873D01*
X118317499Y-89145128D01*
X118311091Y-89085517D01*
X118260796Y-88950669D01*
X118260795Y-88950668D01*
X118260793Y-88950664D01*
X118174547Y-88835455D01*
X118174544Y-88835452D01*
X118059335Y-88749206D01*
X118059328Y-88749202D01*
X117927917Y-88700189D01*
X117871983Y-88658318D01*
X117847566Y-88592853D01*
X117862418Y-88524580D01*
X117883563Y-88496332D01*
X118005495Y-88374401D01*
X118141035Y-88180830D01*
X118240903Y-87966663D01*
X118302063Y-87738408D01*
X118322659Y-87503000D01*
X118302063Y-87267592D01*
X118240903Y-87039337D01*
X118141035Y-86825171D01*
X118005495Y-86631599D01*
X118005494Y-86631597D01*
X117838402Y-86464506D01*
X117838401Y-86464505D01*
X117652405Y-86334269D01*
X117608781Y-86279692D01*
X117601588Y-86210193D01*
X117633110Y-86147839D01*
X117652405Y-86131119D01*
X117838082Y-86001105D01*
X118005105Y-85834082D01*
X118140600Y-85640578D01*
X118240429Y-85426492D01*
X118240432Y-85426486D01*
X118297636Y-85213000D01*
X117400012Y-85213000D01*
X117432925Y-85155993D01*
X117467000Y-85028826D01*
X117467000Y-84897174D01*
X117432925Y-84770007D01*
X117400012Y-84713000D01*
X118297636Y-84713000D01*
X118297635Y-84712999D01*
X118240432Y-84499513D01*
X118240429Y-84499507D01*
X118140600Y-84285422D01*
X118140599Y-84285420D01*
X118005113Y-84091926D01*
X118005108Y-84091920D01*
X117838078Y-83924890D01*
X117652405Y-83794879D01*
X117608780Y-83740302D01*
X117601588Y-83670804D01*
X117633110Y-83608449D01*
X117652406Y-83591730D01*
X117838401Y-83461495D01*
X118005495Y-83294401D01*
X118141035Y-83100830D01*
X118240903Y-82886663D01*
X118302063Y-82658408D01*
X118322659Y-82423000D01*
X118302063Y-82187592D01*
X118240903Y-81959337D01*
X118141035Y-81745171D01*
X118082799Y-81662000D01*
X118005494Y-81551597D01*
X117838402Y-81384506D01*
X117838395Y-81384501D01*
X117644834Y-81248967D01*
X117644830Y-81248965D01*
X117644828Y-81248964D01*
X117430663Y-81149097D01*
X117430659Y-81149096D01*
X117430655Y-81149094D01*
X117202413Y-81087938D01*
X117202403Y-81087936D01*
X116967001Y-81067341D01*
X116966999Y-81067341D01*
X116731596Y-81087936D01*
X116731586Y-81087938D01*
X116503344Y-81149094D01*
X116503335Y-81149098D01*
X116289171Y-81248964D01*
X116289169Y-81248965D01*
X116095597Y-81384505D01*
X115928505Y-81551597D01*
X115792965Y-81745169D01*
X115792964Y-81745171D01*
X115693098Y-81959335D01*
X115693094Y-81959344D01*
X115631938Y-82187586D01*
X115631936Y-82187596D01*
X115611341Y-82422999D01*
X49497542Y-82422999D01*
X49376166Y-82237217D01*
X49354557Y-82213744D01*
X49207744Y-82054262D01*
X49011509Y-81901526D01*
X49011507Y-81901525D01*
X49011506Y-81901524D01*
X48792811Y-81783172D01*
X48792802Y-81783169D01*
X48557616Y-81702429D01*
X48312335Y-81661500D01*
X48063665Y-81661500D01*
X47818383Y-81702429D01*
X47583197Y-81783169D01*
X47583188Y-81783172D01*
X47364493Y-81901524D01*
X47168257Y-82054261D01*
X46999833Y-82237217D01*
X46863826Y-82445393D01*
X46763936Y-82673118D01*
X46702892Y-82914175D01*
X46702890Y-82914187D01*
X46682357Y-83161994D01*
X45193141Y-83161994D01*
X45172614Y-82914270D01*
X45172612Y-82914261D01*
X45111587Y-82673282D01*
X45011731Y-82445630D01*
X44911434Y-82292116D01*
X44211787Y-82991764D01*
X44200518Y-82949708D01*
X44128110Y-82824292D01*
X44025708Y-82721890D01*
X43900292Y-82649482D01*
X43858235Y-82638212D01*
X44558057Y-81938390D01*
X44558056Y-81938389D01*
X44511229Y-81901943D01*
X44292614Y-81783635D01*
X44292603Y-81783630D01*
X44057493Y-81702916D01*
X43812293Y-81662000D01*
X43563707Y-81662000D01*
X43318506Y-81702916D01*
X43083396Y-81783630D01*
X43083390Y-81783632D01*
X42864761Y-81901949D01*
X42817942Y-81938388D01*
X42817942Y-81938390D01*
X43517765Y-82638212D01*
X43475708Y-82649482D01*
X43350292Y-82721890D01*
X43247890Y-82824292D01*
X43175482Y-82949708D01*
X43164212Y-82991764D01*
X42464564Y-82292116D01*
X42364267Y-82445632D01*
X42264412Y-82673282D01*
X42203387Y-82914261D01*
X42203385Y-82914270D01*
X42182859Y-83161994D01*
X40500500Y-83161994D01*
X40500500Y-44003051D01*
X40500649Y-43996967D01*
X40517052Y-43663072D01*
X40518245Y-43650962D01*
X40550639Y-43432580D01*
X40566849Y-43323296D01*
X40569218Y-43311385D01*
X40649710Y-42990043D01*
X40653240Y-42978411D01*
X40687772Y-42881902D01*
X72499500Y-42881902D01*
X72499500Y-43118097D01*
X72536446Y-43351368D01*
X72609433Y-43575996D01*
X72653801Y-43663072D01*
X72716657Y-43786433D01*
X72855483Y-43977510D01*
X73022490Y-44144517D01*
X73213567Y-44283343D01*
X73312991Y-44334002D01*
X73424003Y-44390566D01*
X73424005Y-44390566D01*
X73424008Y-44390568D01*
X73544412Y-44429689D01*
X73648631Y-44463553D01*
X73881903Y-44500500D01*
X73881908Y-44500500D01*
X86118097Y-44500500D01*
X86351368Y-44463553D01*
X86575992Y-44390568D01*
X86786433Y-44283343D01*
X86977510Y-44144517D01*
X87144517Y-43977510D01*
X87283343Y-43786433D01*
X87390568Y-43575992D01*
X87463553Y-43351368D01*
X87479648Y-43249750D01*
X87500500Y-43118097D01*
X87500500Y-42881902D01*
X87463553Y-42648631D01*
X87390566Y-42424003D01*
X87283342Y-42213566D01*
X87144517Y-42022490D01*
X86977510Y-41855483D01*
X86786433Y-41716657D01*
X86575996Y-41609433D01*
X86351368Y-41536446D01*
X86118097Y-41499500D01*
X86118092Y-41499500D01*
X86065892Y-41499500D01*
X74065892Y-41499500D01*
X74000000Y-41499500D01*
X73881908Y-41499500D01*
X73881903Y-41499500D01*
X73648631Y-41536446D01*
X73424003Y-41609433D01*
X73213566Y-41716657D01*
X73104550Y-41795862D01*
X73022490Y-41855483D01*
X73022488Y-41855485D01*
X73022487Y-41855485D01*
X72855485Y-42022487D01*
X72855485Y-42022488D01*
X72855483Y-42022490D01*
X72834847Y-42050893D01*
X72716657Y-42213566D01*
X72609433Y-42424003D01*
X72536446Y-42648631D01*
X72499500Y-42881902D01*
X40687772Y-42881902D01*
X40764835Y-42666525D01*
X40769476Y-42655318D01*
X40911124Y-42355828D01*
X40916840Y-42345136D01*
X41087145Y-42060998D01*
X41093888Y-42050905D01*
X41291232Y-41784818D01*
X41298935Y-41775433D01*
X41521405Y-41529975D01*
X41529975Y-41521405D01*
X41775433Y-41298935D01*
X41784818Y-41291232D01*
X42050905Y-41093888D01*
X42060998Y-41087145D01*
X42345136Y-40916840D01*
X42355828Y-40911124D01*
X42655318Y-40769476D01*
X42666525Y-40764835D01*
X42978412Y-40653239D01*
X42990043Y-40649710D01*
X43311385Y-40569218D01*
X43323296Y-40566849D01*
X43650962Y-40518244D01*
X43663068Y-40517052D01*
X43996967Y-40500648D01*
X44003051Y-40500500D01*
X44065892Y-40500500D01*
X115934108Y-40500500D01*
X115996949Y-40500500D01*
X116003032Y-40500648D01*
G37*
%TD.AperFunction*%
%TD*%
M02*
