%TF.GenerationSoftware,KiCad,Pcbnew,8.0.6*%
%TF.CreationDate,2024-12-16T19:52:51-05:00*%
%TF.ProjectId,nametag,6e616d65-7461-4672-9e6b-696361645f70,rev?*%
%TF.SameCoordinates,Original*%
%TF.FileFunction,Copper,L1,Top*%
%TF.FilePolarity,Positive*%
%FSLAX46Y46*%
G04 Gerber Fmt 4.6, Leading zero omitted, Abs format (unit mm)*
G04 Created by KiCad (PCBNEW 8.0.6) date 2024-12-16 19:52:51*
%MOMM*%
%LPD*%
G01*
G04 APERTURE LIST*
G04 Aperture macros list*
%AMRoundRect*
0 Rectangle with rounded corners*
0 $1 Rounding radius*
0 $2 $3 $4 $5 $6 $7 $8 $9 X,Y pos of 4 corners*
0 Add a 4 corners polygon primitive as box body*
4,1,4,$2,$3,$4,$5,$6,$7,$8,$9,$2,$3,0*
0 Add four circle primitives for the rounded corners*
1,1,$1+$1,$2,$3*
1,1,$1+$1,$4,$5*
1,1,$1+$1,$6,$7*
1,1,$1+$1,$8,$9*
0 Add four rect primitives between the rounded corners*
20,1,$1+$1,$2,$3,$4,$5,0*
20,1,$1+$1,$4,$5,$6,$7,0*
20,1,$1+$1,$6,$7,$8,$9,0*
20,1,$1+$1,$8,$9,$2,$3,0*%
G04 Aperture macros list end*
%TA.AperFunction,SMDPad,CuDef*%
%ADD10RoundRect,0.150000X0.875000X0.150000X-0.875000X0.150000X-0.875000X-0.150000X0.875000X-0.150000X0*%
%TD*%
%TA.AperFunction,SMDPad,CuDef*%
%ADD11RoundRect,0.237500X0.172535X-0.330596X0.292085X0.231838X-0.172535X0.330596X-0.292085X-0.231838X0*%
%TD*%
%TA.AperFunction,SMDPad,CuDef*%
%ADD12RoundRect,0.237500X-0.250000X-0.237500X0.250000X-0.237500X0.250000X0.237500X-0.250000X0.237500X0*%
%TD*%
%TA.AperFunction,SMDPad,CuDef*%
%ADD13RoundRect,0.237500X0.351391X0.124846X-0.188932X0.321508X-0.351391X-0.124846X0.188932X-0.321508X0*%
%TD*%
%TA.AperFunction,SMDPad,CuDef*%
%ADD14RoundRect,0.237500X0.292085X-0.231838X0.172535X0.330596X-0.292085X0.231838X-0.172535X-0.330596X0*%
%TD*%
%TA.AperFunction,SMDPad,CuDef*%
%ADD15RoundRect,0.150000X-0.512500X-0.150000X0.512500X-0.150000X0.512500X0.150000X-0.512500X0.150000X0*%
%TD*%
%TA.AperFunction,SMDPad,CuDef*%
%ADD16RoundRect,0.237500X0.237500X-0.300000X0.237500X0.300000X-0.237500X0.300000X-0.237500X-0.300000X0*%
%TD*%
%TA.AperFunction,SMDPad,CuDef*%
%ADD17RoundRect,0.237500X0.035355X0.371231X-0.371231X-0.035355X-0.035355X-0.371231X0.371231X0.035355X0*%
%TD*%
%TA.AperFunction,SMDPad,CuDef*%
%ADD18RoundRect,0.237500X-0.067576X-0.366737X0.372900X0.002866X0.067576X0.366737X-0.372900X-0.002866X0*%
%TD*%
%TA.AperFunction,SMDPad,CuDef*%
%ADD19RoundRect,0.237500X0.300000X0.237500X-0.300000X0.237500X-0.300000X-0.237500X0.300000X-0.237500X0*%
%TD*%
%TA.AperFunction,SMDPad,CuDef*%
%ADD20RoundRect,0.237500X-0.287500X-0.237500X0.287500X-0.237500X0.287500X0.237500X-0.287500X0.237500X0*%
%TD*%
%TA.AperFunction,ComponentPad*%
%ADD21C,2.000000*%
%TD*%
%TA.AperFunction,SMDPad,CuDef*%
%ADD22RoundRect,0.237500X0.307105X0.211539X-0.265706X0.261654X-0.307105X-0.211539X0.265706X-0.261654X0*%
%TD*%
%TA.AperFunction,SMDPad,CuDef*%
%ADD23RoundRect,0.250000X-0.450000X0.325000X-0.450000X-0.325000X0.450000X-0.325000X0.450000X0.325000X0*%
%TD*%
%TA.AperFunction,SMDPad,CuDef*%
%ADD24RoundRect,0.237500X-0.372900X0.002866X0.067576X-0.366737X0.372900X-0.002866X-0.067576X0.366737X0*%
%TD*%
%TA.AperFunction,SMDPad,CuDef*%
%ADD25RoundRect,0.237500X0.241891X0.283816X-0.324374X0.183968X-0.241891X-0.283816X0.324374X-0.183968X0*%
%TD*%
%TA.AperFunction,SMDPad,CuDef*%
%ADD26RoundRect,0.237500X-0.188932X-0.321508X0.351391X-0.124846X0.188932X0.321508X-0.351391X0.124846X0*%
%TD*%
%TA.AperFunction,ComponentPad*%
%ADD27R,1.700000X1.700000*%
%TD*%
%TA.AperFunction,ComponentPad*%
%ADD28O,1.700000X1.700000*%
%TD*%
%TA.AperFunction,ComponentPad*%
%ADD29R,2.000000X2.000000*%
%TD*%
%TA.AperFunction,ViaPad*%
%ADD30C,0.600000*%
%TD*%
%TA.AperFunction,Conductor*%
%ADD31C,0.400000*%
%TD*%
%TA.AperFunction,Conductor*%
%ADD32C,0.700000*%
%TD*%
G04 APERTURE END LIST*
D10*
%TO.P,U2,1,GND*%
%TO.N,GND*%
X73865000Y-93345000D03*
%TO.P,U2,2,PF6(\u002ARESET)*%
%TO.N,/Mcu/UPDI_RSTN*%
X73865000Y-92075000D03*
%TO.P,U2,3,PF7(UPDI)*%
%TO.N,/Mcu/UPDI_PROG*%
X73865000Y-90805000D03*
%TO.P,U2,4,PA0(XTAL1)*%
%TO.N,/Mcu/pwm0*%
X73865000Y-89535000D03*
%TO.P,U2,5,PA1(XTAL2)*%
%TO.N,/Mcu/pwm1*%
X73865000Y-88265000D03*
%TO.P,U2,6,PA2*%
%TO.N,/Mcu/pwm2*%
X73865000Y-86995000D03*
%TO.P,U2,7,PA3*%
%TO.N,/Mcu/pwm3*%
X73865000Y-85725000D03*
%TO.P,U2,8,PA4*%
%TO.N,/Mcu/pwm4*%
X73865000Y-84455000D03*
%TO.P,U2,9,PA5*%
%TO.N,/Mcu/pwm5*%
X73865000Y-83185000D03*
%TO.P,U2,10,PA6*%
%TO.N,/Mcu/cathode0*%
X73865000Y-81915000D03*
%TO.P,U2,11,PA7*%
%TO.N,/Mcu/cathode1*%
X64565000Y-81915000D03*
%TO.P,U2,12,PC1*%
%TO.N,/Mcu/switch*%
X64565000Y-83185000D03*
%TO.P,U2,13,PC2*%
%TO.N,unconnected-(U2-PC2-Pad13)*%
X64565000Y-84455000D03*
%TO.P,U2,14,PC3*%
%TO.N,unconnected-(U2-PC3-Pad14)*%
X64565000Y-85725000D03*
%TO.P,U2,15,VDDIO2*%
%TO.N,+3.3V*%
X64565000Y-86995000D03*
%TO.P,U2,16,PD4*%
%TO.N,/Mcu/pwm6*%
X64565000Y-88265000D03*
%TO.P,U2,17,PD5*%
%TO.N,/Mcu/pwm7*%
X64565000Y-89535000D03*
%TO.P,U2,18,PD6*%
%TO.N,unconnected-(U2-PD6-Pad18)*%
X64565000Y-90805000D03*
%TO.P,U2,19,PD7*%
%TO.N,unconnected-(U2-PD7-Pad19)*%
X64565000Y-92075000D03*
%TO.P,U2,20,VDD*%
%TO.N,+3.3V*%
X64565000Y-93345000D03*
%TD*%
D11*
%TO.P,D8,1,K*%
%TO.N,GND*%
X112158154Y-66735758D03*
%TO.P,D8,2,A*%
%TO.N,Net-(D5-A)*%
X112522000Y-65024000D03*
%TD*%
D12*
%TO.P,R5,1*%
%TO.N,/Mcu/pwm3*%
X77470000Y-85598000D03*
%TO.P,R5,2*%
%TO.N,Net-(D14-A)*%
X79295000Y-85598000D03*
%TD*%
D13*
%TO.P,D16,1,K*%
%TO.N,/Mcu/cathode0*%
X94100462Y-72226536D03*
%TO.P,D16,2,A*%
%TO.N,Net-(D12-A)*%
X92456000Y-71628000D03*
%TD*%
D14*
%TO.P,D1,1,K*%
%TO.N,GND*%
X79256246Y-49022000D03*
%TO.P,D1,2,A*%
%TO.N,Net-(D1-A)*%
X78892400Y-47310242D03*
%TD*%
D15*
%TO.P,U3,1,SW*%
%TO.N,Net-(U3-SW)*%
X55352100Y-88508800D03*
%TO.P,U3,2,GND*%
%TO.N,GND*%
X55352100Y-89458800D03*
%TO.P,U3,3,NC*%
%TO.N,unconnected-(U3-NC-Pad3)*%
X55352100Y-90408800D03*
%TO.P,U3,4,VOUT*%
%TO.N,+3.3V*%
X57627100Y-90408800D03*
%TO.P,U3,5,NC*%
%TO.N,unconnected-(U3-NC-Pad5)*%
X57627100Y-88508800D03*
%TD*%
D16*
%TO.P,C2,1*%
%TO.N,+3.3V*%
X59570000Y-93345000D03*
%TO.P,C2,2*%
%TO.N,GND*%
X59570000Y-91620000D03*
%TD*%
D17*
%TO.P,D9,1,K*%
%TO.N,GND*%
X105215918Y-55820082D03*
%TO.P,D9,2,A*%
%TO.N,Net-(D9-A)*%
X103978482Y-57057518D03*
%TD*%
D11*
%TO.P,D7,1,K*%
%TO.N,GND*%
X113682154Y-60512758D03*
%TO.P,D7,2,A*%
%TO.N,Net-(D5-A)*%
X114046000Y-58801000D03*
%TD*%
D18*
%TO.P,D13,1,K*%
%TO.N,GND*%
X108204000Y-83439000D03*
%TO.P,D13,2,A*%
%TO.N,Net-(D13-A)*%
X109544578Y-82314122D03*
%TD*%
D19*
%TO.P,C1,1*%
%TO.N,+3.3V*%
X57352100Y-93116400D03*
%TO.P,C1,2*%
%TO.N,GND*%
X55627100Y-93116400D03*
%TD*%
D20*
%TO.P,D10,1,K*%
%TO.N,GND*%
X96661000Y-86995000D03*
%TO.P,D10,2,A*%
%TO.N,Net-(D10-A)*%
X98411000Y-86995000D03*
%TD*%
D11*
%TO.P,D6,1,K*%
%TO.N,GND*%
X114952154Y-54797758D03*
%TO.P,D6,2,A*%
%TO.N,Net-(D5-A)*%
X115316000Y-53086000D03*
%TD*%
%TO.P,D5,1,K*%
%TO.N,GND*%
X116353277Y-48912679D03*
%TO.P,D5,2,A*%
%TO.N,Net-(D5-A)*%
X116717123Y-47200921D03*
%TD*%
D12*
%TO.P,R8,1*%
%TO.N,/Mcu/pwm1*%
X77470000Y-89154000D03*
%TO.P,R8,2*%
%TO.N,Net-(D13-A)*%
X79295000Y-89154000D03*
%TD*%
D21*
%TO.P,SW1,1,A*%
%TO.N,/Mcu/switch*%
X48188000Y-83162000D03*
X48188000Y-89662000D03*
%TO.P,SW1,2,B*%
%TO.N,GND*%
X43688000Y-83162000D03*
X43688000Y-89662000D03*
%TD*%
D22*
%TO.P,D12,1,K*%
%TO.N,/Mcu/cathode1*%
X88341550Y-65045338D03*
%TO.P,D12,2,A*%
%TO.N,Net-(D12-A)*%
X86598208Y-64892816D03*
%TD*%
D14*
%TO.P,D3,1,K*%
%TO.N,GND*%
X82151846Y-60893758D03*
%TO.P,D3,2,A*%
%TO.N,Net-(D1-A)*%
X81788000Y-59182000D03*
%TD*%
%TO.P,D4,1,K*%
%TO.N,GND*%
X83566000Y-66852800D03*
%TO.P,D4,2,A*%
%TO.N,Net-(D1-A)*%
X83202154Y-65141042D03*
%TD*%
%TO.P,D2,1,K*%
%TO.N,GND*%
X80772000Y-55178758D03*
%TO.P,D2,2,A*%
%TO.N,Net-(D1-A)*%
X80408154Y-53467000D03*
%TD*%
D23*
%TO.P,L1,1,1*%
%TO.N,Net-(BT1-+)*%
X52324000Y-86215000D03*
%TO.P,L1,2,2*%
%TO.N,Net-(U3-SW)*%
X52324000Y-88265000D03*
%TD*%
D12*
%TO.P,R6,1*%
%TO.N,/Mcu/pwm5*%
X77470000Y-82042000D03*
%TO.P,R6,2*%
%TO.N,Net-(D12-A)*%
X79295000Y-82042000D03*
%TD*%
D24*
%TO.P,D14,1,K*%
%TO.N,GND*%
X86035422Y-82441122D03*
%TO.P,D14,2,A*%
%TO.N,Net-(D14-A)*%
X87376000Y-83566000D03*
%TD*%
D12*
%TO.P,R7,1*%
%TO.N,/Mcu/pwm2*%
X77423000Y-87376000D03*
%TO.P,R7,2*%
%TO.N,Net-(D9-A)*%
X79248000Y-87376000D03*
%TD*%
D25*
%TO.P,D11,1,K*%
%TO.N,/Mcu/cathode1*%
X107315000Y-64897000D03*
%TO.P,D11,2,A*%
%TO.N,Net-(D11-A)*%
X105591586Y-65200884D03*
%TD*%
D26*
%TO.P,D15,1,K*%
%TO.N,/Mcu/cathode0*%
X101680769Y-72181267D03*
%TO.P,D15,2,A*%
%TO.N,Net-(D11-A)*%
X103325231Y-71582733D03*
%TD*%
D12*
%TO.P,R1,1*%
%TO.N,/Mcu/pwm6*%
X77470000Y-77470000D03*
%TO.P,R1,2*%
%TO.N,Net-(D1-A)*%
X79295000Y-77470000D03*
%TD*%
%TO.P,R2,1*%
%TO.N,/Mcu/pwm7*%
X77470000Y-79248000D03*
%TO.P,R2,2*%
%TO.N,Net-(D5-A)*%
X79295000Y-79248000D03*
%TD*%
%TO.P,R4,1*%
%TO.N,/Mcu/pwm0*%
X77423000Y-90932000D03*
%TO.P,R4,2*%
%TO.N,Net-(D10-A)*%
X79248000Y-90932000D03*
%TD*%
%TO.P,R3,1*%
%TO.N,/Mcu/pwm4*%
X77470000Y-83820000D03*
%TO.P,R3,2*%
%TO.N,Net-(D11-A)*%
X79295000Y-83820000D03*
%TD*%
D16*
%TO.P,C3,1*%
%TO.N,+3.3V*%
X59570000Y-86995000D03*
%TO.P,C3,2*%
%TO.N,GND*%
X59570000Y-85270000D03*
%TD*%
D27*
%TO.P,J1,1,Pin_1*%
%TO.N,/Mcu/UPDI_RSTN*%
X116967000Y-90043000D03*
D28*
%TO.P,J1,2,Pin_2*%
%TO.N,+3.3V*%
X116967000Y-87503000D03*
%TO.P,J1,3,Pin_3*%
%TO.N,GND*%
X116967000Y-84963000D03*
%TO.P,J1,4,Pin_4*%
%TO.N,/Mcu/UPDI_PROG*%
X116967000Y-82423000D03*
%TD*%
D29*
%TO.P,BT1,1,+*%
%TO.N,Net-(BT1-+)*%
X56700000Y-85000000D03*
D21*
%TO.P,BT1,2,-*%
%TO.N,GND*%
X101400000Y-85000000D03*
%TD*%
D30*
%TO.N,GND*%
X115062000Y-55626000D03*
X116205000Y-50165000D03*
X61000000Y-80000000D03*
X61000000Y-92000000D03*
X61000000Y-86000000D03*
X61000000Y-88000000D03*
X51000000Y-83000000D03*
X86995000Y-81915000D03*
X95769260Y-87514260D03*
X63000000Y-80000000D03*
X75565000Y-93345000D03*
X80010000Y-55245000D03*
X107315000Y-84455000D03*
X52000000Y-92000000D03*
X80010000Y-48895000D03*
X82651600Y-66954400D03*
X54203600Y-89509600D03*
X83185000Y-60960000D03*
X50000000Y-86000000D03*
X54610000Y-93000000D03*
X57000000Y-81000000D03*
X104241600Y-55321200D03*
X53000000Y-81000000D03*
X61000000Y-84000000D03*
X50000000Y-90000000D03*
X113665000Y-61595000D03*
X113131600Y-66903600D03*
%TD*%
D31*
%TO.N,Net-(BT1-+)*%
X55485000Y-86215000D02*
X56700000Y-85000000D01*
X52324000Y-86215000D02*
X55485000Y-86215000D01*
%TO.N,GND*%
X113682154Y-60512758D02*
X113682154Y-61577846D01*
D32*
X55627100Y-93116400D02*
X54660800Y-93116400D01*
D31*
X112158154Y-66735758D02*
X112963758Y-66735758D01*
X80772000Y-55178758D02*
X80076242Y-55178758D01*
X114952154Y-54797758D02*
X114952154Y-55516154D01*
D32*
X59570000Y-84194000D02*
X59690000Y-84074000D01*
D31*
X114952154Y-55516154D02*
X115062000Y-55626000D01*
X96288520Y-86995000D02*
X95769260Y-87514260D01*
X113682154Y-61577846D02*
X113665000Y-61595000D01*
X105215918Y-55820082D02*
X104740482Y-55820082D01*
D32*
X59570000Y-91620000D02*
X59570000Y-90812000D01*
D31*
X79121000Y-49022000D02*
X79883000Y-49022000D01*
X108204000Y-83566000D02*
X107315000Y-84455000D01*
X82151846Y-60893758D02*
X83118758Y-60893758D01*
X96661000Y-86995000D02*
X96288520Y-86995000D01*
X86468878Y-82441122D02*
X86995000Y-81915000D01*
D32*
X54254400Y-89458800D02*
X54203600Y-89509600D01*
D31*
X80076242Y-55178758D02*
X80010000Y-55245000D01*
X86035422Y-82441122D02*
X86468878Y-82441122D01*
D32*
X59570000Y-90812000D02*
X59436000Y-90678000D01*
D31*
X82753200Y-66852800D02*
X82651600Y-66954400D01*
X79883000Y-49022000D02*
X80010000Y-48895000D01*
D32*
X55352100Y-89458800D02*
X54254400Y-89458800D01*
D31*
X112963758Y-66735758D02*
X113131600Y-66903600D01*
X83118758Y-60893758D02*
X83185000Y-60960000D01*
X104740482Y-55820082D02*
X104241600Y-55321200D01*
X108204000Y-83439000D02*
X108204000Y-83566000D01*
X83566000Y-66852800D02*
X82753200Y-66852800D01*
X73865000Y-93345000D02*
X75565000Y-93345000D01*
D32*
X59570000Y-85270000D02*
X59570000Y-84194000D01*
D31*
X116205000Y-48895000D02*
X116205000Y-50165000D01*
D32*
%TO.N,+3.3V*%
X57627100Y-92817900D02*
X57227000Y-93218000D01*
D31*
X118217000Y-88753000D02*
X118217000Y-91079000D01*
X115062000Y-94234000D02*
X65454000Y-94234000D01*
D32*
X57627100Y-90408800D02*
X59570000Y-88465900D01*
D31*
X118217000Y-91079000D02*
X115062000Y-94234000D01*
D32*
X57627100Y-90408800D02*
X57627100Y-92817900D01*
X59570000Y-88465900D02*
X59570000Y-86995000D01*
X59570000Y-86995000D02*
X64565000Y-86995000D01*
X57227000Y-93218000D02*
X59443000Y-93218000D01*
X59443000Y-93218000D02*
X59570000Y-93345000D01*
D31*
X65454000Y-94234000D02*
X64565000Y-93345000D01*
X116967000Y-87503000D02*
X118217000Y-88753000D01*
D32*
X59570000Y-93345000D02*
X64565000Y-93345000D01*
D31*
%TO.N,Net-(D1-A)*%
X80893766Y-53467000D02*
X80408154Y-53467000D01*
X81788000Y-59182000D02*
X81788000Y-54361234D01*
X79215642Y-68993358D02*
X79215642Y-77390642D01*
X79215642Y-77390642D02*
X79295000Y-77470000D01*
X80408154Y-53467000D02*
X80408154Y-52468154D01*
X80408154Y-52468154D02*
X78190817Y-50250817D01*
X81221663Y-63314663D02*
X83058000Y-65151000D01*
X81221663Y-59748337D02*
X81221663Y-63314663D01*
X79215642Y-68993358D02*
X83058000Y-65151000D01*
X81788000Y-54361234D02*
X80893766Y-53467000D01*
X78190817Y-50250817D02*
X78190817Y-47876579D01*
X78190817Y-47876579D02*
X78757154Y-47310242D01*
X81788000Y-59182000D02*
X81221663Y-59748337D01*
%TO.N,/Mcu/pwm6*%
X65589999Y-88265000D02*
X71840000Y-82014999D01*
X75654498Y-77470000D02*
X77470000Y-77470000D01*
X64565000Y-88265000D02*
X65589999Y-88265000D01*
X71840000Y-81284498D02*
X75654498Y-77470000D01*
X71840000Y-82014999D02*
X71840000Y-81284498D01*
%TO.N,/Mcu/pwm7*%
X72440000Y-81533026D02*
X72440000Y-82500000D01*
X65405000Y-89535000D02*
X64565000Y-89535000D01*
X74725026Y-79248000D02*
X72440000Y-81533026D01*
X77470000Y-79248000D02*
X74725026Y-79248000D01*
X72440000Y-82500000D02*
X65405000Y-89535000D01*
%TO.N,/Mcu/pwm0*%
X77423000Y-90932000D02*
X76026000Y-89535000D01*
X76026000Y-89535000D02*
X73865000Y-89535000D01*
%TO.N,Net-(D10-A)*%
X98411000Y-86995000D02*
X94474000Y-90932000D01*
X94474000Y-90932000D02*
X79248000Y-90932000D01*
%TO.N,/Mcu/pwm1*%
X77470000Y-89154000D02*
X76581000Y-88265000D01*
X76581000Y-88265000D02*
X73865000Y-88265000D01*
%TO.N,/Mcu/pwm2*%
X77423000Y-87376000D02*
X74246000Y-87376000D01*
X74246000Y-87376000D02*
X73865000Y-86995000D01*
%TO.N,/Mcu/pwm3*%
X77470000Y-85598000D02*
X73992000Y-85598000D01*
X73992000Y-85598000D02*
X73865000Y-85725000D01*
%TO.N,/Mcu/pwm4*%
X77470000Y-83820000D02*
X76835000Y-84455000D01*
X76835000Y-84455000D02*
X73865000Y-84455000D01*
%TO.N,Net-(D13-A)*%
X93068858Y-89154000D02*
X99908736Y-82314122D01*
X79295000Y-89154000D02*
X93068858Y-89154000D01*
X99908736Y-82314122D02*
X109544578Y-82314122D01*
%TO.N,/Mcu/pwm5*%
X77470000Y-82042000D02*
X76327000Y-83185000D01*
X76327000Y-83185000D02*
X73865000Y-83185000D01*
%TO.N,/Mcu/UPDI_RSTN*%
X114415000Y-92595000D02*
X74385000Y-92595000D01*
X74385000Y-92595000D02*
X73865000Y-92075000D01*
X116967000Y-90043000D02*
X114415000Y-92595000D01*
%TO.N,/Mcu/UPDI_PROG*%
X74549000Y-90805000D02*
X73865000Y-90805000D01*
X116967000Y-82423000D02*
X107583000Y-91807000D01*
X75551000Y-91807000D02*
X74549000Y-90805000D01*
X107583000Y-91807000D02*
X75551000Y-91807000D01*
%TO.N,/Mcu/cathode0*%
X94100462Y-72226536D02*
X93735568Y-72591430D01*
X78774358Y-82917000D02*
X78407500Y-82550142D01*
X78407500Y-82550142D02*
X78407500Y-81583858D01*
X101635500Y-72226536D02*
X101680769Y-72181267D01*
X74613000Y-81167000D02*
X73865000Y-81915000D01*
X93735568Y-72591430D02*
X90141212Y-72591430D01*
X90141212Y-72591430D02*
X79815642Y-82917000D01*
X78407500Y-81583858D02*
X77990642Y-81167000D01*
X79815642Y-82917000D02*
X78774358Y-82917000D01*
X94100462Y-72226536D02*
X101635500Y-72226536D01*
X77990642Y-81167000D02*
X74613000Y-81167000D01*
X93541769Y-72226536D02*
X94100462Y-72226536D01*
%TO.N,/Mcu/cathode1*%
X78167821Y-76772179D02*
X78357500Y-76961858D01*
X78357500Y-79756000D02*
X78724500Y-80123000D01*
X86064298Y-63992527D02*
X87288739Y-63992527D01*
X69885000Y-76595000D02*
X77990642Y-76595000D01*
X89107774Y-64279114D02*
X106697114Y-64279114D01*
X106697114Y-64279114D02*
X107315000Y-64897000D01*
X64565000Y-81915000D02*
X69885000Y-76595000D01*
X77990642Y-76595000D02*
X78167821Y-76772179D01*
X85652468Y-64404357D02*
X86064298Y-63992527D01*
X87288739Y-63992527D02*
X88341550Y-65045338D01*
X88341550Y-65045338D02*
X89107774Y-64279114D01*
X85652468Y-74286174D02*
X85652468Y-64404357D01*
X78724500Y-80123000D02*
X79815642Y-80123000D01*
X78357500Y-76961858D02*
X78357500Y-79756000D01*
X79815642Y-80123000D02*
X85652468Y-74286174D01*
%TO.N,/Mcu/switch*%
X64565000Y-83185000D02*
X61945001Y-83185000D01*
X48188000Y-83162000D02*
X48188000Y-89662000D01*
X52305200Y-79044800D02*
X48188000Y-83162000D01*
X48211000Y-83185000D02*
X48188000Y-83162000D01*
X57804801Y-79044800D02*
X52305200Y-79044800D01*
X61945001Y-83185000D02*
X57804801Y-79044800D01*
%TO.N,Net-(D5-A)*%
X114612337Y-62933663D02*
X112522000Y-65024000D01*
X115316000Y-53086000D02*
X117283460Y-51118540D01*
X114830388Y-53086000D02*
X114692194Y-53224194D01*
X114046000Y-58801000D02*
X114612337Y-59367337D01*
X85052468Y-73490532D02*
X85052468Y-64155829D01*
X117283460Y-51118540D02*
X117283460Y-47767258D01*
X114612337Y-59367337D02*
X114612337Y-62933663D01*
X85052468Y-64155829D02*
X95984103Y-53224194D01*
X113665000Y-54251388D02*
X113665000Y-58420000D01*
X115316000Y-53086000D02*
X114830388Y-53086000D01*
X95984103Y-53224194D02*
X114692194Y-53224194D01*
X114692194Y-53224194D02*
X113665000Y-54251388D01*
X117283460Y-47767258D02*
X116717123Y-47200921D01*
X79295000Y-79248000D02*
X85052468Y-73490532D01*
X113665000Y-58420000D02*
X114046000Y-58801000D01*
%TO.N,Net-(D9-A)*%
X79248000Y-87376000D02*
X92456000Y-87376000D01*
X109474000Y-62553036D02*
X103978482Y-57057518D01*
X109474000Y-70358000D02*
X109474000Y-62553036D01*
X92456000Y-87376000D02*
X109474000Y-70358000D01*
%TO.N,Net-(D11-A)*%
X81112528Y-83820000D02*
X83499374Y-81433154D01*
X103325231Y-72088217D02*
X103325231Y-71582733D01*
X105591586Y-69316378D02*
X105591586Y-65200884D01*
X94581809Y-73152000D02*
X102261448Y-73152000D01*
X79295000Y-83820000D02*
X81112528Y-83820000D01*
X103325231Y-71582733D02*
X105591586Y-69316378D01*
X102261448Y-73152000D02*
X103325231Y-72088217D01*
X83499374Y-81433154D02*
X86300655Y-81433154D01*
X86300655Y-81433154D02*
X94581809Y-73152000D01*
%TO.N,Net-(D12-A)*%
X92456000Y-70750608D02*
X86598208Y-64892816D01*
X92456000Y-71628000D02*
X92456000Y-70750608D01*
X89709000Y-71628000D02*
X79295000Y-82042000D01*
X92456000Y-71628000D02*
X89709000Y-71628000D01*
%TO.N,Net-(D14-A)*%
X87376000Y-83566000D02*
X85344000Y-85598000D01*
X85344000Y-85598000D02*
X79295000Y-85598000D01*
%TO.N,Net-(U3-SW)*%
X52567800Y-88508800D02*
X52324000Y-88265000D01*
X55352100Y-88508800D02*
X52567800Y-88508800D01*
%TD*%
%TA.AperFunction,Conductor*%
%TO.N,GND*%
G36*
X51127020Y-79019685D02*
G01*
X51172775Y-79072489D01*
X51182719Y-79141647D01*
X51153694Y-79205203D01*
X51147662Y-79211681D01*
X48686269Y-81673072D01*
X48624946Y-81706557D01*
X48562774Y-81702935D01*
X48562584Y-81703687D01*
X48558672Y-81702696D01*
X48558340Y-81702677D01*
X48557619Y-81702429D01*
X48312335Y-81661500D01*
X48063665Y-81661500D01*
X47818383Y-81702429D01*
X47583197Y-81783169D01*
X47583188Y-81783172D01*
X47364493Y-81901524D01*
X47168257Y-82054261D01*
X46999833Y-82237217D01*
X46863826Y-82445393D01*
X46763936Y-82673118D01*
X46702892Y-82914175D01*
X46702890Y-82914187D01*
X46682357Y-83161994D01*
X46682357Y-83162005D01*
X46702890Y-83409812D01*
X46702892Y-83409824D01*
X46763936Y-83650881D01*
X46863826Y-83878606D01*
X46999833Y-84086782D01*
X46999836Y-84086785D01*
X47168256Y-84269738D01*
X47203348Y-84297051D01*
X47364488Y-84422472D01*
X47364493Y-84422475D01*
X47422517Y-84453876D01*
X47472108Y-84503095D01*
X47487500Y-84562931D01*
X47487500Y-88261069D01*
X47467815Y-88328108D01*
X47422518Y-88370123D01*
X47364497Y-88401522D01*
X47364492Y-88401525D01*
X47364491Y-88401526D01*
X47317128Y-88438390D01*
X47168257Y-88554261D01*
X46999833Y-88737217D01*
X46863826Y-88945393D01*
X46763936Y-89173118D01*
X46702892Y-89414175D01*
X46702890Y-89414187D01*
X46682357Y-89661994D01*
X46682357Y-89662005D01*
X46702890Y-89909812D01*
X46702892Y-89909824D01*
X46763936Y-90150881D01*
X46863826Y-90378606D01*
X46999833Y-90586782D01*
X47026073Y-90615286D01*
X47168256Y-90769738D01*
X47364491Y-90922474D01*
X47364493Y-90922475D01*
X47582332Y-91040364D01*
X47583190Y-91040828D01*
X47702753Y-91081874D01*
X47816964Y-91121083D01*
X47818386Y-91121571D01*
X48063665Y-91162500D01*
X48312335Y-91162500D01*
X48557614Y-91121571D01*
X48792810Y-91040828D01*
X49011509Y-90922474D01*
X49207744Y-90769738D01*
X49376164Y-90586785D01*
X49512173Y-90378607D01*
X49612063Y-90150881D01*
X49673108Y-89909821D01*
X49676304Y-89871254D01*
X49693643Y-89662005D01*
X49693643Y-89661994D01*
X49673109Y-89414187D01*
X49673107Y-89414175D01*
X49612063Y-89173118D01*
X49512173Y-88945393D01*
X49376166Y-88737217D01*
X49319257Y-88675398D01*
X49207744Y-88554262D01*
X49011509Y-88401526D01*
X48953481Y-88370122D01*
X48903891Y-88320904D01*
X48888500Y-88261069D01*
X48888500Y-84562931D01*
X48908185Y-84495892D01*
X48953483Y-84453876D01*
X49011509Y-84422474D01*
X49207744Y-84269738D01*
X49376164Y-84086785D01*
X49512173Y-83878607D01*
X49612063Y-83650881D01*
X49673108Y-83409821D01*
X49673116Y-83409729D01*
X49693643Y-83162005D01*
X49693643Y-83161994D01*
X49673109Y-82914187D01*
X49673108Y-82914184D01*
X49673108Y-82914179D01*
X49640568Y-82785683D01*
X49643193Y-82715863D01*
X49673091Y-82667564D01*
X52559038Y-79781619D01*
X52620361Y-79748134D01*
X52646719Y-79745300D01*
X57463282Y-79745300D01*
X57530321Y-79764985D01*
X57550963Y-79781619D01*
X61498454Y-83729111D01*
X61498455Y-83729112D01*
X61613193Y-83805777D01*
X61740668Y-83858578D01*
X61740673Y-83858580D01*
X61740677Y-83858580D01*
X61740678Y-83858581D01*
X61876004Y-83885500D01*
X61876007Y-83885500D01*
X61876008Y-83885500D01*
X62969327Y-83885500D01*
X63036366Y-83905185D01*
X63082121Y-83957989D01*
X63092065Y-84027147D01*
X63088403Y-84044095D01*
X63042402Y-84202426D01*
X63042401Y-84202432D01*
X63039500Y-84239298D01*
X63039500Y-84670701D01*
X63042401Y-84707567D01*
X63042402Y-84707573D01*
X63088254Y-84865393D01*
X63088255Y-84865396D01*
X63171917Y-85006862D01*
X63176702Y-85013031D01*
X63174256Y-85014927D01*
X63200857Y-85063642D01*
X63195873Y-85133334D01*
X63175069Y-85165703D01*
X63176702Y-85166969D01*
X63171917Y-85173137D01*
X63088255Y-85314603D01*
X63088254Y-85314606D01*
X63042402Y-85472426D01*
X63042401Y-85472432D01*
X63039500Y-85509298D01*
X63039500Y-85940701D01*
X63042401Y-85977567D01*
X63042402Y-85977573D01*
X63044824Y-85985908D01*
X63044623Y-86055778D01*
X63006679Y-86114447D01*
X62943040Y-86143288D01*
X62925747Y-86144500D01*
X60541828Y-86144500D01*
X60474789Y-86124815D01*
X60429034Y-86072011D01*
X60419090Y-86002853D01*
X60436289Y-85955403D01*
X60480451Y-85883805D01*
X60480453Y-85883800D01*
X60534680Y-85720152D01*
X60544999Y-85619154D01*
X60545000Y-85619141D01*
X60545000Y-85520000D01*
X58595001Y-85520000D01*
X58595001Y-85619154D01*
X58605319Y-85720152D01*
X58659546Y-85883800D01*
X58659551Y-85883811D01*
X58750052Y-86030534D01*
X58750055Y-86030538D01*
X58763982Y-86044465D01*
X58797467Y-86105788D01*
X58792483Y-86175480D01*
X58763984Y-86219825D01*
X58749661Y-86234148D01*
X58659093Y-86380981D01*
X58659092Y-86380984D01*
X58604826Y-86544747D01*
X58604826Y-86544748D01*
X58604825Y-86544748D01*
X58594500Y-86645815D01*
X58594500Y-87344169D01*
X58594501Y-87344187D01*
X58604825Y-87445252D01*
X58604826Y-87445255D01*
X58659091Y-87609014D01*
X58687925Y-87655761D01*
X58706365Y-87723154D01*
X58685442Y-87789817D01*
X58631800Y-87834587D01*
X58562470Y-87843248D01*
X58519265Y-87827590D01*
X58486647Y-87808300D01*
X58399998Y-87757056D01*
X58399997Y-87757055D01*
X58399996Y-87757055D01*
X58399993Y-87757054D01*
X58242173Y-87711202D01*
X58242167Y-87711201D01*
X58205301Y-87708300D01*
X58205294Y-87708300D01*
X57048906Y-87708300D01*
X57048898Y-87708300D01*
X57012032Y-87711201D01*
X57012026Y-87711202D01*
X56854206Y-87757054D01*
X56854203Y-87757055D01*
X56712737Y-87840717D01*
X56712729Y-87840723D01*
X56596523Y-87956929D01*
X56596514Y-87956940D01*
X56596329Y-87957255D01*
X56596119Y-87957450D01*
X56591739Y-87963098D01*
X56590827Y-87962391D01*
X56545257Y-88004936D01*
X56476515Y-88017437D01*
X56411927Y-87990788D01*
X56387743Y-87962878D01*
X56387461Y-87963098D01*
X56383423Y-87957892D01*
X56382871Y-87957255D01*
X56382685Y-87956940D01*
X56382676Y-87956929D01*
X56266470Y-87840723D01*
X56266462Y-87840717D01*
X56188281Y-87794481D01*
X56124998Y-87757056D01*
X56124997Y-87757055D01*
X56124996Y-87757055D01*
X56124993Y-87757054D01*
X55967173Y-87711202D01*
X55967167Y-87711201D01*
X55930301Y-87708300D01*
X55930294Y-87708300D01*
X54773906Y-87708300D01*
X54773898Y-87708300D01*
X54737032Y-87711201D01*
X54737026Y-87711202D01*
X54579206Y-87757054D01*
X54579203Y-87757055D01*
X54541555Y-87779320D01*
X54528225Y-87787204D01*
X54521752Y-87791032D01*
X54458631Y-87808300D01*
X53610531Y-87808300D01*
X53543492Y-87788615D01*
X53497737Y-87735811D01*
X53492825Y-87723304D01*
X53470443Y-87655761D01*
X53458814Y-87620666D01*
X53366712Y-87471344D01*
X53242656Y-87347288D01*
X53239819Y-87345538D01*
X53238283Y-87343830D01*
X53236989Y-87342807D01*
X53237163Y-87342585D01*
X53193096Y-87293594D01*
X53181872Y-87224632D01*
X53209713Y-87160549D01*
X53239817Y-87134462D01*
X53242656Y-87132712D01*
X53366712Y-87008656D01*
X53387839Y-86974402D01*
X53439787Y-86927679D01*
X53493378Y-86915500D01*
X55553996Y-86915500D01*
X55645040Y-86897389D01*
X55689328Y-86888580D01*
X55759942Y-86859331D01*
X55816807Y-86835777D01*
X55816808Y-86835776D01*
X55816811Y-86835775D01*
X55931543Y-86759114D01*
X56153839Y-86536816D01*
X56215160Y-86503333D01*
X56241519Y-86500499D01*
X57747871Y-86500499D01*
X57747872Y-86500499D01*
X57807483Y-86494091D01*
X57942331Y-86443796D01*
X58057546Y-86357546D01*
X58143796Y-86242331D01*
X58194091Y-86107483D01*
X58200500Y-86047873D01*
X58200499Y-84920845D01*
X58595000Y-84920845D01*
X58595000Y-85020000D01*
X59320000Y-85020000D01*
X59820000Y-85020000D01*
X60544999Y-85020000D01*
X60544999Y-84920860D01*
X60544998Y-84920845D01*
X60534680Y-84819847D01*
X60480453Y-84656199D01*
X60480448Y-84656188D01*
X60389947Y-84509465D01*
X60389944Y-84509461D01*
X60268038Y-84387555D01*
X60268034Y-84387552D01*
X60121311Y-84297051D01*
X60121300Y-84297046D01*
X59957652Y-84242819D01*
X59856654Y-84232500D01*
X59820000Y-84232500D01*
X59820000Y-85020000D01*
X59320000Y-85020000D01*
X59320000Y-84232500D01*
X59283361Y-84232500D01*
X59283343Y-84232501D01*
X59182347Y-84242819D01*
X59018699Y-84297046D01*
X59018688Y-84297051D01*
X58871965Y-84387552D01*
X58871961Y-84387555D01*
X58750055Y-84509461D01*
X58750052Y-84509465D01*
X58659551Y-84656188D01*
X58659546Y-84656199D01*
X58605319Y-84819847D01*
X58595000Y-84920845D01*
X58200499Y-84920845D01*
X58200499Y-83952128D01*
X58194091Y-83892517D01*
X58188814Y-83878369D01*
X58143797Y-83757671D01*
X58143793Y-83757664D01*
X58057547Y-83642455D01*
X58057544Y-83642452D01*
X57942335Y-83556206D01*
X57942328Y-83556202D01*
X57807482Y-83505908D01*
X57807483Y-83505908D01*
X57747883Y-83499501D01*
X57747881Y-83499500D01*
X57747873Y-83499500D01*
X57747864Y-83499500D01*
X55652129Y-83499500D01*
X55652123Y-83499501D01*
X55592516Y-83505908D01*
X55457671Y-83556202D01*
X55457664Y-83556206D01*
X55342455Y-83642452D01*
X55342452Y-83642455D01*
X55256206Y-83757664D01*
X55256202Y-83757671D01*
X55205908Y-83892517D01*
X55199501Y-83952116D01*
X55199501Y-83952123D01*
X55199500Y-83952135D01*
X55199500Y-85390500D01*
X55179815Y-85457539D01*
X55127011Y-85503294D01*
X55075500Y-85514500D01*
X53493378Y-85514500D01*
X53426339Y-85494815D01*
X53387839Y-85455597D01*
X53366712Y-85421344D01*
X53242656Y-85297288D01*
X53093334Y-85205186D01*
X52926797Y-85150001D01*
X52926795Y-85150000D01*
X52824010Y-85139500D01*
X51823998Y-85139500D01*
X51823980Y-85139501D01*
X51721203Y-85150000D01*
X51721200Y-85150001D01*
X51554668Y-85205185D01*
X51554663Y-85205187D01*
X51405342Y-85297289D01*
X51281289Y-85421342D01*
X51189187Y-85570663D01*
X51189185Y-85570668D01*
X51161349Y-85654670D01*
X51134001Y-85737203D01*
X51134001Y-85737204D01*
X51134000Y-85737204D01*
X51123500Y-85839983D01*
X51123500Y-86590001D01*
X51123501Y-86590019D01*
X51134000Y-86692796D01*
X51134001Y-86692799D01*
X51189185Y-86859331D01*
X51189187Y-86859336D01*
X51281289Y-87008657D01*
X51405346Y-87132714D01*
X51408182Y-87134463D01*
X51409717Y-87136170D01*
X51411011Y-87137193D01*
X51410836Y-87137414D01*
X51454905Y-87186411D01*
X51466126Y-87255374D01*
X51438282Y-87319456D01*
X51408182Y-87345537D01*
X51405346Y-87347285D01*
X51281289Y-87471342D01*
X51189187Y-87620663D01*
X51189185Y-87620668D01*
X51161349Y-87704670D01*
X51134001Y-87787203D01*
X51134001Y-87787204D01*
X51134000Y-87787204D01*
X51123500Y-87889983D01*
X51123500Y-88640001D01*
X51123501Y-88640019D01*
X51134000Y-88742796D01*
X51134001Y-88742799D01*
X51175739Y-88868754D01*
X51189186Y-88909334D01*
X51281288Y-89058656D01*
X51405344Y-89182712D01*
X51554666Y-89274814D01*
X51721203Y-89329999D01*
X51823991Y-89340500D01*
X52824008Y-89340499D01*
X52824016Y-89340498D01*
X52824019Y-89340498D01*
X52880302Y-89334748D01*
X52926797Y-89329999D01*
X53093334Y-89274814D01*
X53169620Y-89227761D01*
X53234716Y-89209300D01*
X54458631Y-89209300D01*
X54521751Y-89226567D01*
X54579202Y-89260544D01*
X54620824Y-89272636D01*
X54737026Y-89306397D01*
X54737029Y-89306397D01*
X54737031Y-89306398D01*
X54773906Y-89309300D01*
X54773914Y-89309300D01*
X55930286Y-89309300D01*
X55930294Y-89309300D01*
X55967169Y-89306398D01*
X55967171Y-89306397D01*
X55967173Y-89306397D01*
X56008791Y-89294305D01*
X56124998Y-89260544D01*
X56183294Y-89226068D01*
X56246415Y-89208800D01*
X56511894Y-89208800D01*
X56536157Y-89182552D01*
X56596118Y-89146685D01*
X56665952Y-89148929D01*
X56705612Y-89173330D01*
X56706569Y-89172098D01*
X56712732Y-89176878D01*
X56712735Y-89176881D01*
X56854202Y-89260544D01*
X56895824Y-89272636D01*
X57012026Y-89306397D01*
X57012029Y-89306397D01*
X57012031Y-89306398D01*
X57048906Y-89309300D01*
X57224449Y-89309300D01*
X57291488Y-89328985D01*
X57337243Y-89381789D01*
X57347187Y-89450947D01*
X57318162Y-89514503D01*
X57312130Y-89520981D01*
X57261130Y-89571981D01*
X57199807Y-89605466D01*
X57173449Y-89608300D01*
X57048898Y-89608300D01*
X57012032Y-89611201D01*
X57012026Y-89611202D01*
X56854206Y-89657054D01*
X56854203Y-89657055D01*
X56712737Y-89740717D01*
X56706569Y-89745502D01*
X56705264Y-89743819D01*
X56653554Y-89772046D01*
X56583863Y-89767051D01*
X56536158Y-89735047D01*
X56511896Y-89708800D01*
X56246415Y-89708800D01*
X56183294Y-89691532D01*
X56133366Y-89662005D01*
X56124998Y-89657056D01*
X56124997Y-89657055D01*
X56124996Y-89657055D01*
X56124993Y-89657054D01*
X55967173Y-89611202D01*
X55967167Y-89611201D01*
X55930301Y-89608300D01*
X55930294Y-89608300D01*
X54773906Y-89608300D01*
X54773898Y-89608300D01*
X54737032Y-89611201D01*
X54737026Y-89611202D01*
X54579206Y-89657054D01*
X54579203Y-89657055D01*
X54520906Y-89691532D01*
X54457785Y-89708800D01*
X54192305Y-89708800D01*
X54192304Y-89708801D01*
X54192499Y-89711288D01*
X54192500Y-89711294D01*
X54238316Y-89868993D01*
X54238320Y-89869003D01*
X54239027Y-89870198D01*
X54239295Y-89871254D01*
X54241416Y-89876156D01*
X54240624Y-89876498D01*
X54256203Y-89937923D01*
X54240593Y-89991084D01*
X54240955Y-89991241D01*
X54239687Y-89994169D01*
X54239027Y-89996420D01*
X54237859Y-89998394D01*
X54237854Y-89998407D01*
X54192002Y-90156226D01*
X54192001Y-90156232D01*
X54189100Y-90193098D01*
X54189100Y-90624501D01*
X54192001Y-90661367D01*
X54192002Y-90661373D01*
X54237854Y-90819193D01*
X54237855Y-90819196D01*
X54321332Y-90960350D01*
X54321518Y-90960664D01*
X54321523Y-90960670D01*
X54437729Y-91076876D01*
X54437733Y-91076879D01*
X54437735Y-91076881D01*
X54579202Y-91160544D01*
X54584214Y-91162000D01*
X54737026Y-91206397D01*
X54737029Y-91206397D01*
X54737031Y-91206398D01*
X54773906Y-91209300D01*
X54773914Y-91209300D01*
X55930286Y-91209300D01*
X55930294Y-91209300D01*
X55967169Y-91206398D01*
X55967171Y-91206397D01*
X55967173Y-91206397D01*
X56008791Y-91194305D01*
X56124998Y-91160544D01*
X56266465Y-91076881D01*
X56382681Y-90960665D01*
X56382867Y-90960349D01*
X56383077Y-90960153D01*
X56387461Y-90954502D01*
X56388372Y-90955209D01*
X56433936Y-90912666D01*
X56502677Y-90900162D01*
X56567267Y-90926806D01*
X56591455Y-90954721D01*
X56591739Y-90954502D01*
X56595779Y-90959711D01*
X56596332Y-90960348D01*
X56596519Y-90960665D01*
X56596521Y-90960667D01*
X56596523Y-90960670D01*
X56712729Y-91076876D01*
X56712731Y-91076877D01*
X56712735Y-91076881D01*
X56715715Y-91078643D01*
X56717574Y-91080634D01*
X56718898Y-91081661D01*
X56718732Y-91081874D01*
X56763400Y-91129705D01*
X56776600Y-91185378D01*
X56776600Y-92112527D01*
X56756915Y-92179566D01*
X56717698Y-92218065D01*
X56591250Y-92296059D01*
X56576925Y-92310384D01*
X56515601Y-92343868D01*
X56445909Y-92338882D01*
X56401565Y-92310382D01*
X56387638Y-92296455D01*
X56387634Y-92296452D01*
X56240911Y-92205951D01*
X56240900Y-92205946D01*
X56077252Y-92151719D01*
X55976254Y-92141400D01*
X55877100Y-92141400D01*
X55877100Y-94091399D01*
X55976240Y-94091399D01*
X55976254Y-94091398D01*
X56077252Y-94081080D01*
X56240900Y-94026853D01*
X56240911Y-94026848D01*
X56387635Y-93936347D01*
X56401560Y-93922421D01*
X56462882Y-93888933D01*
X56532573Y-93893914D01*
X56576927Y-93922417D01*
X56591250Y-93936740D01*
X56738084Y-94027308D01*
X56901847Y-94081574D01*
X57002923Y-94091900D01*
X57701276Y-94091899D01*
X57701284Y-94091898D01*
X57701287Y-94091898D01*
X57724765Y-94089499D01*
X57802353Y-94081574D01*
X57814562Y-94077528D01*
X57822814Y-94074794D01*
X57861817Y-94068500D01*
X58660948Y-94068500D01*
X58727987Y-94088185D01*
X58748629Y-94104819D01*
X58749660Y-94105850D01*
X58871650Y-94227840D01*
X58939941Y-94269962D01*
X58986664Y-94321909D01*
X58997887Y-94390872D01*
X58970043Y-94454954D01*
X58911975Y-94493810D01*
X58874843Y-94499500D01*
X44003051Y-94499500D01*
X43996968Y-94499351D01*
X43976900Y-94498365D01*
X43663071Y-94482947D01*
X43650962Y-94481754D01*
X43323305Y-94433151D01*
X43311369Y-94430777D01*
X42990055Y-94350292D01*
X42978411Y-94346759D01*
X42666540Y-94235170D01*
X42655301Y-94230515D01*
X42355844Y-94088883D01*
X42345121Y-94083150D01*
X42076959Y-93922421D01*
X42061011Y-93912862D01*
X42050893Y-93906102D01*
X41784829Y-93708775D01*
X41775423Y-93701055D01*
X41590554Y-93533500D01*
X41529986Y-93478604D01*
X41521395Y-93470013D01*
X41460707Y-93403054D01*
X54589601Y-93403054D01*
X54599919Y-93504052D01*
X54654146Y-93667700D01*
X54654151Y-93667711D01*
X54744652Y-93814434D01*
X54744655Y-93814438D01*
X54866561Y-93936344D01*
X54866565Y-93936347D01*
X55013288Y-94026848D01*
X55013299Y-94026853D01*
X55176947Y-94081080D01*
X55277951Y-94091399D01*
X55377100Y-94091398D01*
X55377100Y-93366400D01*
X54589601Y-93366400D01*
X54589601Y-93403054D01*
X41460707Y-93403054D01*
X41298944Y-93224576D01*
X41291224Y-93215170D01*
X41093897Y-92949106D01*
X41087137Y-92938988D01*
X41084508Y-92934602D01*
X41021659Y-92829745D01*
X54589600Y-92829745D01*
X54589600Y-92866400D01*
X55377100Y-92866400D01*
X55377100Y-92141399D01*
X55277960Y-92141400D01*
X55277944Y-92141401D01*
X55176947Y-92151719D01*
X55013299Y-92205946D01*
X55013288Y-92205951D01*
X54866565Y-92296452D01*
X54866561Y-92296455D01*
X54744655Y-92418361D01*
X54744652Y-92418365D01*
X54654151Y-92565088D01*
X54654146Y-92565099D01*
X54599919Y-92728747D01*
X54589600Y-92829745D01*
X41021659Y-92829745D01*
X40916844Y-92654871D01*
X40911120Y-92644163D01*
X40769479Y-92344688D01*
X40764829Y-92333459D01*
X40755362Y-92307001D01*
X40653240Y-92021588D01*
X40649707Y-92009944D01*
X40639490Y-91969154D01*
X40569219Y-91688617D01*
X40566848Y-91676694D01*
X40565054Y-91664603D01*
X40527828Y-91413642D01*
X40518245Y-91349037D01*
X40517052Y-91336927D01*
X40511081Y-91215393D01*
X40500649Y-91003032D01*
X40500500Y-90996948D01*
X40500500Y-89661994D01*
X42182859Y-89661994D01*
X42182859Y-89662005D01*
X42203385Y-89909729D01*
X42203387Y-89909738D01*
X42264412Y-90150717D01*
X42364266Y-90378364D01*
X42464564Y-90531882D01*
X43164212Y-89832234D01*
X43175482Y-89874292D01*
X43247890Y-89999708D01*
X43350292Y-90102110D01*
X43475708Y-90174518D01*
X43517765Y-90185787D01*
X42817942Y-90885609D01*
X42864768Y-90922055D01*
X42864770Y-90922056D01*
X43083385Y-91040364D01*
X43083396Y-91040369D01*
X43318506Y-91121083D01*
X43563707Y-91162000D01*
X43812293Y-91162000D01*
X44057493Y-91121083D01*
X44292603Y-91040369D01*
X44292614Y-91040364D01*
X44511228Y-90922057D01*
X44511231Y-90922055D01*
X44558056Y-90885609D01*
X43858234Y-90185787D01*
X43900292Y-90174518D01*
X44025708Y-90102110D01*
X44128110Y-89999708D01*
X44200518Y-89874292D01*
X44211787Y-89832235D01*
X44911434Y-90531882D01*
X45011731Y-90378369D01*
X45111587Y-90150717D01*
X45172612Y-89909738D01*
X45172614Y-89909729D01*
X45193141Y-89662005D01*
X45193141Y-89661994D01*
X45172614Y-89414270D01*
X45172612Y-89414261D01*
X45111587Y-89173282D01*
X45011731Y-88945630D01*
X44911434Y-88792116D01*
X44211787Y-89491764D01*
X44200518Y-89449708D01*
X44128110Y-89324292D01*
X44025708Y-89221890D01*
X43900292Y-89149482D01*
X43858235Y-89138212D01*
X44558057Y-88438390D01*
X44558056Y-88438389D01*
X44511229Y-88401943D01*
X44292614Y-88283635D01*
X44292603Y-88283630D01*
X44057493Y-88202916D01*
X43812293Y-88162000D01*
X43563707Y-88162000D01*
X43318506Y-88202916D01*
X43083396Y-88283630D01*
X43083390Y-88283632D01*
X42864761Y-88401949D01*
X42817942Y-88438388D01*
X42817942Y-88438390D01*
X43517765Y-89138212D01*
X43475708Y-89149482D01*
X43350292Y-89221890D01*
X43247890Y-89324292D01*
X43175482Y-89449708D01*
X43164212Y-89491764D01*
X42464564Y-88792116D01*
X42364267Y-88945632D01*
X42264412Y-89173282D01*
X42203387Y-89414261D01*
X42203385Y-89414270D01*
X42182859Y-89661994D01*
X40500500Y-89661994D01*
X40500500Y-83161994D01*
X42182859Y-83161994D01*
X42182859Y-83162005D01*
X42203385Y-83409729D01*
X42203387Y-83409738D01*
X42264412Y-83650717D01*
X42364266Y-83878364D01*
X42464564Y-84031882D01*
X43164212Y-83332234D01*
X43175482Y-83374292D01*
X43247890Y-83499708D01*
X43350292Y-83602110D01*
X43475708Y-83674518D01*
X43517765Y-83685787D01*
X42817942Y-84385609D01*
X42864768Y-84422055D01*
X42864770Y-84422056D01*
X43083385Y-84540364D01*
X43083396Y-84540369D01*
X43318506Y-84621083D01*
X43563707Y-84662000D01*
X43812293Y-84662000D01*
X44057493Y-84621083D01*
X44292603Y-84540369D01*
X44292614Y-84540364D01*
X44511228Y-84422057D01*
X44511231Y-84422055D01*
X44558056Y-84385609D01*
X43858234Y-83685787D01*
X43900292Y-83674518D01*
X44025708Y-83602110D01*
X44128110Y-83499708D01*
X44200518Y-83374292D01*
X44211787Y-83332235D01*
X44911434Y-84031882D01*
X45011731Y-83878369D01*
X45111587Y-83650717D01*
X45172612Y-83409738D01*
X45172614Y-83409729D01*
X45193141Y-83162005D01*
X45193141Y-83161994D01*
X45172614Y-82914270D01*
X45172612Y-82914261D01*
X45111587Y-82673282D01*
X45011731Y-82445630D01*
X44911434Y-82292116D01*
X44211787Y-82991764D01*
X44200518Y-82949708D01*
X44128110Y-82824292D01*
X44025708Y-82721890D01*
X43900292Y-82649482D01*
X43858235Y-82638212D01*
X44558057Y-81938390D01*
X44558056Y-81938389D01*
X44511229Y-81901943D01*
X44292614Y-81783635D01*
X44292603Y-81783630D01*
X44057493Y-81702916D01*
X43812293Y-81662000D01*
X43563707Y-81662000D01*
X43318506Y-81702916D01*
X43083396Y-81783630D01*
X43083390Y-81783632D01*
X42864761Y-81901949D01*
X42817942Y-81938388D01*
X42817942Y-81938390D01*
X43517765Y-82638212D01*
X43475708Y-82649482D01*
X43350292Y-82721890D01*
X43247890Y-82824292D01*
X43175482Y-82949708D01*
X43164212Y-82991764D01*
X42464564Y-82292116D01*
X42364267Y-82445632D01*
X42264412Y-82673282D01*
X42203387Y-82914261D01*
X42203385Y-82914270D01*
X42182859Y-83161994D01*
X40500500Y-83161994D01*
X40500500Y-79124000D01*
X40520185Y-79056961D01*
X40572989Y-79011206D01*
X40624500Y-79000000D01*
X51059981Y-79000000D01*
X51127020Y-79019685D01*
G37*
%TD.AperFunction*%
%TA.AperFunction,Conductor*%
G36*
X62992786Y-87865185D02*
G01*
X63038541Y-87917989D01*
X63048485Y-87987147D01*
X63044824Y-88004092D01*
X63042402Y-88012426D01*
X63042401Y-88012432D01*
X63039500Y-88049298D01*
X63039500Y-88480701D01*
X63042401Y-88517567D01*
X63042402Y-88517573D01*
X63088254Y-88675393D01*
X63088255Y-88675396D01*
X63171917Y-88816862D01*
X63176702Y-88823031D01*
X63174256Y-88824927D01*
X63200857Y-88873642D01*
X63195873Y-88943334D01*
X63175069Y-88975703D01*
X63176702Y-88976969D01*
X63171917Y-88983137D01*
X63088255Y-89124603D01*
X63088254Y-89124606D01*
X63042402Y-89282426D01*
X63042401Y-89282432D01*
X63039500Y-89319298D01*
X63039500Y-89750701D01*
X63042401Y-89787567D01*
X63042402Y-89787573D01*
X63088254Y-89945393D01*
X63088255Y-89945396D01*
X63171917Y-90086862D01*
X63176702Y-90093031D01*
X63174256Y-90094927D01*
X63200857Y-90143642D01*
X63195873Y-90213334D01*
X63175069Y-90245703D01*
X63176702Y-90246969D01*
X63171917Y-90253137D01*
X63088255Y-90394603D01*
X63088254Y-90394606D01*
X63042402Y-90552426D01*
X63042401Y-90552432D01*
X63039500Y-90589298D01*
X63039500Y-91020701D01*
X63042401Y-91057567D01*
X63042402Y-91057573D01*
X63088254Y-91215393D01*
X63088255Y-91215396D01*
X63171917Y-91356862D01*
X63176702Y-91363031D01*
X63174256Y-91364927D01*
X63200857Y-91413642D01*
X63195873Y-91483334D01*
X63175069Y-91515703D01*
X63176702Y-91516969D01*
X63171917Y-91523137D01*
X63088255Y-91664603D01*
X63088254Y-91664606D01*
X63042402Y-91822426D01*
X63042401Y-91822432D01*
X63039500Y-91859298D01*
X63039500Y-92290701D01*
X63042401Y-92327567D01*
X63042402Y-92327573D01*
X63044824Y-92335908D01*
X63044623Y-92405778D01*
X63006679Y-92464447D01*
X62943040Y-92493288D01*
X62925747Y-92494500D01*
X60541828Y-92494500D01*
X60474789Y-92474815D01*
X60429034Y-92422011D01*
X60419090Y-92352853D01*
X60436289Y-92305403D01*
X60480451Y-92233805D01*
X60480453Y-92233800D01*
X60534680Y-92070152D01*
X60544999Y-91969154D01*
X60545000Y-91969141D01*
X60545000Y-91870000D01*
X59444000Y-91870000D01*
X59376961Y-91850315D01*
X59331206Y-91797511D01*
X59320000Y-91746000D01*
X59320000Y-91370000D01*
X59820000Y-91370000D01*
X60544999Y-91370000D01*
X60544999Y-91270860D01*
X60544998Y-91270845D01*
X60534680Y-91169847D01*
X60480453Y-91006199D01*
X60480448Y-91006188D01*
X60389947Y-90859465D01*
X60389944Y-90859461D01*
X60268038Y-90737555D01*
X60268034Y-90737552D01*
X60121311Y-90647051D01*
X60121300Y-90647046D01*
X59957652Y-90592819D01*
X59856654Y-90582500D01*
X59820000Y-90582500D01*
X59820000Y-91370000D01*
X59320000Y-91370000D01*
X59320000Y-90582500D01*
X59283361Y-90582500D01*
X59283343Y-90582501D01*
X59182347Y-90592819D01*
X59018699Y-90647046D01*
X59018690Y-90647050D01*
X58979196Y-90671411D01*
X58911804Y-90689851D01*
X58845140Y-90668928D01*
X58800371Y-90615286D01*
X58790100Y-90565872D01*
X58790100Y-90499951D01*
X58809785Y-90432912D01*
X58826419Y-90412270D01*
X60230624Y-89008065D01*
X60230627Y-89008062D01*
X60323704Y-88868762D01*
X60375880Y-88742797D01*
X60380741Y-88731062D01*
X60380743Y-88731056D01*
X60387816Y-88713982D01*
X60420500Y-88549667D01*
X60420500Y-87969500D01*
X60440185Y-87902461D01*
X60492989Y-87856706D01*
X60544500Y-87845500D01*
X62925747Y-87845500D01*
X62992786Y-87865185D01*
G37*
%TD.AperFunction*%
%TA.AperFunction,Conductor*%
G36*
X65943039Y-79019685D02*
G01*
X65988794Y-79072489D01*
X66000000Y-79124000D01*
X66000000Y-79437981D01*
X65980315Y-79505020D01*
X65963681Y-79525662D01*
X64411162Y-81078181D01*
X64349839Y-81111666D01*
X64323481Y-81114500D01*
X63624298Y-81114500D01*
X63587432Y-81117401D01*
X63587426Y-81117402D01*
X63429606Y-81163254D01*
X63429603Y-81163255D01*
X63288137Y-81246917D01*
X63288129Y-81246923D01*
X63171923Y-81363129D01*
X63171917Y-81363137D01*
X63088255Y-81504603D01*
X63088254Y-81504606D01*
X63042404Y-81662423D01*
X63042401Y-81662432D01*
X63039500Y-81699298D01*
X63039500Y-82130701D01*
X63042401Y-82167567D01*
X63042402Y-82167573D01*
X63088403Y-82325905D01*
X63088204Y-82395774D01*
X63050262Y-82454444D01*
X62986624Y-82483288D01*
X62969327Y-82484500D01*
X62286520Y-82484500D01*
X62219481Y-82464815D01*
X62198839Y-82448181D01*
X58962339Y-79211681D01*
X58928854Y-79150358D01*
X58933838Y-79080666D01*
X58975710Y-79024733D01*
X59041174Y-79000316D01*
X59050020Y-79000000D01*
X65876000Y-79000000D01*
X65943039Y-79019685D01*
G37*
%TD.AperFunction*%
%TD*%
M02*
